<?xml version="1.0" encoding="UTF-8" standalone="no"?>
<!DOCTYPE svg PUBLIC "-//W3C//DTD SVG 1.1//EN" "http://www.w3.org/Graphics/SVG/1.1/DTD/svg11.dtd">
<svg xmlns="http://www.w3.org/2000/svg" version="1.1" viewBox="0.00 0.00 318.00 317.00">
<path fill="#3e3d5f" d="
  M 317.89 157.84
  A 157.76 157.76 0.0 0 1 160.13 315.60
  A 157.76 157.76 0.0 0 1 2.37 157.84
  A 157.76 157.76 0.0 0 1 160.13 0.08
  A 157.76 157.76 0.0 0 1 317.89 157.84
  Z
  M 156.54 53.52
  Q 156.95 54.95 155.86 53.95
  C 144.08 43.15 130.70 38.05 115.08 34.62
  Q 103.30 32.03 92.50 31.97
  Q 88.85 31.95 85.19 34.36
  C 75.27 40.92 65.25 48.03 57.61 56.76
  Q 55.01 59.74 58.84 58.76
  C 82.00 52.81 106.29 52.34 128.65 59.83
  Q 129.55 60.13 128.72 60.59
  Q 128.33 60.79 127.92 60.73
  Q 127.50 60.67 127.09 60.71
  Q 100.02 63.39 76.41 77.16
  Q 50.00 92.56 28.46 114.64
  C 25.53 117.65 21.28 121.20 19.64 124.67
  C 17.73 128.72 17.31 133.81 16.73 138.22
  Q 12.69 168.95 21.39 198.93
  A 0.74 0.73 67.2 0 0 22.45 199.37
  Q 23.07 199.02 23.31 198.33
  Q 33.72 169.24 50.31 143.76
  Q 60.78 127.69 76.03 113.03
  Q 88.84 100.72 101.91 92.67
  C 106.70 89.71 111.54 86.59 116.83 84.68
  Q 118.70 84.01 117.34 85.45
  C 106.12 97.38 96.54 111.60 88.47 126.07
  Q 77.43 145.85 71.69 167.71
  Q 59.57 213.87 68.85 260.07
  Q 70.50 268.26 72.56 271.78
  Q 73.49 273.37 74.87 274.37
  Q 100.52 292.82 131.38 299.77
  A 0.96 0.96 0.0 0 0 132.48 298.49
  Q 131.98 297.17 131.32 296.19
  C 125.83 288.08 121.69 279.70 117.48 270.93
  C 106.76 248.60 99.66 223.39 98.44 198.37
  Q 96.17 151.77 121.70 110.06
  Q 122.70 108.44 122.33 110.31
  C 121.31 115.48 119.65 120.50 119.01 125.66
  C 116.56 145.44 118.95 165.63 124.76 184.20
  Q 132.86 210.08 146.92 235.00
  Q 151.50 243.11 156.41 251.15
  A 0.57 0.57 0.0 0 0 157.24 251.30
  Q 157.86 250.83 157.80 249.71
  A 1.69 1.50 34.6 0 0 157.68 249.22
  C 151.90 235.64 152.20 222.09 156.67 207.82
  C 157.20 206.14 156.85 204.95 155.95 203.56
  Q 140.70 179.70 131.14 153.25
  Q 129.60 148.98 128.45 145.05
  Q 128.18 144.13 129.00 144.64
  C 131.05 145.92 132.91 147.54 134.93 148.81
  Q 143.62 154.29 155.12 157.34
  Q 167.53 160.63 179.87 164.09
  C 186.37 165.91 195.51 169.45 198.83 175.96
  C 199.62 177.52 199.29 179.19 198.29 180.54
  C 192.33 188.68 180.41 206.33 188.91 215.92
  Q 191.46 218.80 198.11 222.11
  C 212.13 229.11 228.67 230.66 239.65 217.91
  Q 247.80 208.45 250.52 194.58
  C 250.71 193.60 250.63 192.10 250.23 191.19
  Q 243.95 176.93 238.27 161.60
  Q 236.99 158.15 236.64 154.84
  Q 236.47 153.27 238.04 153.49
  C 244.04 154.32 250.32 163.19 254.00 167.47
  Q 256.94 170.89 261.51 171.04
  Q 272.96 171.44 281.57 167.40
  Q 283.59 166.45 282.80 164.34
  Q 281.34 160.40 279.05 157.45
  Q 267.82 142.94 254.76 130.67
  Q 244.38 120.93 233.12 110.57
  Q 232.96 110.43 233.09 110.26
  L 233.10 110.26
  Q 233.23 110.09 233.40 110.21
  Q 254.01 124.30 273.37 141.70
  C 278.98 146.75 296.06 164.11 290.51 172.01
  Q 288.25 175.23 284.16 177.57
  Q 276.79 181.79 271.24 185.99
  Q 267.72 188.66 266.15 192.59
  C 260.21 207.45 251.96 221.13 237.57 229.46
  C 226.42 235.91 215.85 238.87 202.78 239.96
  C 193.86 240.71 185.27 241.27 176.54 242.35
  C 166.88 243.54 169.39 254.19 174.73 258.26
  C 180.90 262.96 189.39 264.53 197.16 263.11
  Q 213.99 260.05 222.07 244.24
  Q 223.94 240.59 223.03 244.59
  Q 219.81 258.77 208.15 267.93
  C 198.92 275.17 187.70 276.18 176.50 274.42
  A 0.79 0.79 0.0 0 0 175.59 275.17
  Q 175.57 275.88 176.09 276.39
  Q 186.12 286.25 196.06 295.84
  Q 197.76 297.48 199.99 296.80
  Q 240.68 284.41 269.06 251.73
  C 286.59 231.55 299.29 204.79 302.69 178.16
  C 305.24 158.23 304.35 137.88 298.69 118.75
  Q 287.89 82.28 261.88 56.39
  Q 228.95 23.61 182.07 15.35
  A 1.11 1.11 0.0 0 0 180.80 16.71
  C 183.93 28.98 179.81 40.94 174.07 51.81
  Q 173.53 52.83 173.46 51.68
  Q 173.29 49.13 173.21 46.52
  C 172.87 36.10 168.49 25.69 162.01 17.86
  C 160.31 15.80 158.82 13.89 155.84 13.88
  Q 151.90 13.86 148.21 14.22
  Q 134.29 15.60 119.86 19.37
  A 0.76 0.75 88.2 0 0 119.31 19.96
  Q 119.22 20.49 119.53 20.85
  Q 119.81 21.19 120.25 21.32
  C 137.10 26.44 151.32 35.30 156.54 53.52
  Z"
/>
<path fill="#3e3d5f" d="
  M 155.88 91.31
  Q 155.18 90.96 155.96 90.98
  C 158.60 91.03 161.15 91.52 163.76 91.45
  Q 173.31 91.23 181.54 88.62
  Q 187.32 86.79 192.72 84.69
  A 0.65 0.64 -9.7 0 1 193.60 85.31
  Q 193.30 94.71 187.50 102.25
  Q 186.45 103.62 187.69 105.17
  Q 195.90 115.42 199.88 127.10
  Q 200.38 128.57 199.46 127.33
  Q 182.55 104.55 155.88 91.31
  Z"
/>
</svg>
